<svg xmlns="http://www.w3.org/2000/svg" width="44.349" height="44.349" viewBox="0 0 44.349 44.349">
  <g id="Group_11619" data-name="Group 11619" transform="translate(-1546.884 -4450.087)">
    <g id="Ellipse_134" data-name="Ellipse 134" transform="translate(1546.884 4450.087)" fill="none" style="isolation: isolate">
      <path d="M0,22.175A22.175,22.175,0,1,1,22.175,44.349,22.175,22.175,0,0,1,0,22.175Z" stroke="none" fill="#ffffff"/>
      <path d="M 22.17468643188477 1 C 19.31567573547363 1 16.54272651672363 1.559719085693359 13.93284606933594 2.663597106933594 C 11.41149520874023 3.730037689208984 9.146884918212891 5.256950378417969 7.201927185058594 7.201919555664062 C 5.2569580078125 9.146888732910156 3.730045318603516 11.4114990234375 2.663604736328125 13.93283843994141 C 1.559726715087891 16.5427188873291 1.000007629394531 19.3156681060791 1.000007629394531 22.17467880249023 C 1.000007629394531 25.03369903564453 1.559726715087891 27.80665969848633 2.663604736328125 30.41653823852539 C 3.730045318603516 32.93788909912109 5.2569580078125 35.20249938964844 7.201915740966797 37.1474609375 C 9.146884918212891 39.09243011474609 11.41149520874023 40.61932754516602 13.93284606933594 41.68576812744141 C 16.54271697998047 42.78964996337891 19.31567573547363 43.34935760498047 22.17468643188477 43.34935760498047 C 25.03370666503906 43.34935760498047 27.80666732788086 42.78964996337891 30.41654586791992 41.68576812744141 C 32.93789672851562 40.61932754516602 35.20250701904297 39.09243011474609 37.14746856689453 37.1474609375 C 39.09243774414062 35.20249938964844 40.61933517456055 32.93788909912109 41.68577575683594 30.41653823852539 C 42.78965759277344 27.80665969848633 43.349365234375 25.03369903564453 43.349365234375 22.17467880249023 C 43.349365234375 19.3156681060791 42.78965759277344 16.5427188873291 41.68577575683594 13.93283843994141 C 40.61933517456055 11.4114990234375 39.09243774414062 9.146888732910156 37.14746856689453 7.201919555664062 C 35.20250701904297 5.256950378417969 32.93789672851562 3.730037689208984 30.41654586791992 2.663597106933594 C 27.80666732788086 1.559719085693359 25.03370666503906 1 22.17468643188477 1 M 22.17468643188477 0 C 34.42148590087891 0 44.349365234375 9.927940368652344 44.349365234375 22.17467880249023 C 44.349365234375 34.42147827148438 34.42148590087891 44.34935760498047 22.17468643188477 44.34935760498047 C 9.927936553955078 44.34935760498047 7.62939453125e-06 34.42147827148438 7.62939453125e-06 22.17467880249023 C 7.62939453125e-06 9.927940368652344 9.927936553955078 0 22.17468643188477 0 Z" stroke="none" fill="#f39e24"/>
    </g>
    <path id="Vector_453" data-name="Vector 453" d="M5.544,11.087l5.544-5.544L5.544,0m5.544,5.544H0" transform="translate(1574.602 4477.806) rotate(180)" fill="none" stroke="#f39e24" stroke-linecap="round" stroke-linejoin="round" stroke-width="1" style="isolation: isolate"/>
  </g>
</svg>