<svg xmlns="http://www.w3.org/2000/svg" width="39" height="39" viewBox="0 0 39 39">
  <g id="Text_Ellipse" data-name="Text Ellipse" transform="translate(0)" style="isolation: isolate">
    <g id="Ellipse_132" data-name="Ellipse 132" transform="translate(0)" fill="none" style="isolation: isolate">
      <path d="M0,19.5A19.5,19.5,0,1,1,19.5,39,19.5,19.5,0,0,1,0,19.5Z" stroke="none"/>
      <path d="M 19.5 1 C 17.0020809173584 1 14.57939910888672 1.488998413085938 12.29927062988281 2.453411102294922 C 10.0964298248291 3.385139465332031 8.117860794067383 4.719188690185547 6.418529510498047 6.418529510498047 C 4.719188690185547 8.117860794067383 3.385139465332031 10.0964298248291 2.453411102294922 12.29927062988281 C 1.488998413085938 14.57939910888672 1 17.0020809173584 1 19.5 C 1 21.99794006347656 1.488998413085938 24.42061996459961 2.453411102294922 26.70075035095215 C 3.385139465332031 28.90359878540039 4.719188690185547 30.88216018676758 6.418521881103516 32.58148956298828 C 8.117849349975586 34.28081893920898 10.09642028808594 35.6148681640625 12.29927062988281 36.54660034179688 C 14.57939910888672 37.51100158691406 17.0020694732666 38 19.5 38 C 21.99794006347656 38 24.42061996459961 37.51100158691406 26.70075035095215 36.54658889770508 C 28.90359878540039 35.6148681640625 30.88216972351074 34.28081893920898 32.58148956298828 32.58148956298828 C 34.28081893920898 30.88216972351074 35.6148681640625 28.90359878540039 36.54658889770508 26.70075035095215 C 37.51100158691406 24.42061996459961 38 21.99794006347656 38 19.5 C 38 17.0020694732666 37.51100158691406 14.57939910888672 36.54660034179688 12.29927062988281 C 35.6148681640625 10.09642028808594 34.28081893920898 8.117849349975586 32.58148956298828 6.418521881103516 C 30.88216018676758 4.719188690185547 28.90359878540039 3.385139465332031 26.70075035095215 2.453411102294922 C 24.42061996459961 1.488998413085938 21.99794006347656 1 19.5 1 M 19.5 0 C 30.26959991455078 0 39 8.730449676513672 39 19.5 C 39 30.26959991455078 30.26959991455078 39 19.5 39 C 8.730449676513672 39 0 30.26959991455078 0 19.5 C 0 8.730449676513672 8.730449676513672 0 19.5 0 Z" stroke="none" fill="#57b22c"/>
    </g>
    <path id="Rectangle_5" data-name="Rectangle 5" d="M0,0H13V13M13,0,0,13" transform="translate(13 13)" fill="none" stroke="#57b22c" stroke-width="1" style="isolation: isolate"/>
  </g>
</svg>
