<svg xmlns="http://www.w3.org/2000/svg" id="Group_11619" data-name="Group 11619" width="44.349" height="44.349" viewBox="0 0 44.349 44.349">
  <g id="Ellipse_134" data-name="Ellipse 134" transform="translate(0)" fill="none" style="isolation: isolate">
    <path d="M44.349,22.175A22.175,22.175,0,1,0,22.175,44.349,22.175,22.175,0,0,0,44.349,22.175Z" stroke="none" fill="#ffffff"/>
    <path d="M 22.17468643188477 1 C 19.31566619873047 1 16.54270553588867 1.559719085693359 13.93282699584961 2.663597106933594 C 11.41147613525391 3.730037689208984 9.146865844726562 5.256950378417969 7.201908111572266 7.201919555664062 C 5.256935119628906 9.146888732910156 3.730037689208984 11.4114990234375 2.663597106933594 13.93283843994141 C 1.559715270996094 16.5427188873291 1.000007629394531 19.3156681060791 1.000007629394531 22.17467880249023 C 1.000007629394531 25.03369903564453 1.559715270996094 27.80665969848633 2.663597106933594 30.41653823852539 C 3.730037689208984 32.93788909912109 5.256935119628906 35.20249938964844 7.201908111572266 37.1474609375 C 9.146865844726562 39.09243011474609 11.41147613525391 40.61932754516602 13.93282699584961 41.68576812744141 C 16.54270553588867 42.78964996337891 19.31566619873047 43.34935760498047 22.17468643188477 43.34935760498047 C 25.0336971282959 43.34935760498047 27.80665588378906 42.78964996337891 30.41652679443359 41.68576812744141 C 32.9378776550293 40.61932754516602 35.20248413085938 39.09243011474609 37.14745712280273 37.1474609375 C 39.09241485595703 35.20249938964844 40.61932754516602 32.93788909912109 41.68576812744141 30.41653823852539 C 42.78964614868164 27.80665969848633 43.349365234375 25.03369903564453 43.349365234375 22.17467880249023 C 43.349365234375 19.3156681060791 42.78964614868164 16.5427188873291 41.68576812744141 13.93283843994141 C 40.61932754516602 11.4114990234375 39.09241485595703 9.146888732910156 37.14744567871094 7.201919555664062 C 35.20248413085938 5.256950378417969 32.9378776550293 3.730037689208984 30.41652679443359 2.663597106933594 C 27.8066463470459 1.559719085693359 25.0336971282959 1 22.17468643188477 1 M 22.17468643188477 0 C 34.42143630981445 0 44.349365234375 9.927940368652344 44.349365234375 22.17467880249023 C 44.349365234375 34.42147827148438 34.42143630981445 44.34935760498047 22.17468643188477 44.34935760498047 C 9.927886962890625 44.34935760498047 7.62939453125e-06 34.42147827148438 7.62939453125e-06 22.17467880249023 C 7.62939453125e-06 9.927940368652344 9.927886962890625 0 22.17468643188477 0 Z" stroke="none" fill="#f39e24"/>
  </g>
  <path id="Vector_453" data-name="Vector 453" d="M5.544,0l5.544,5.544L5.544,11.087m5.544-5.544H0" transform="translate(16.631 16.631)" fill="none" stroke="#f39e24" stroke-linecap="round" stroke-linejoin="round" stroke-width="1" style="isolation: isolate"/>
</svg>