<svg id="Group_11560" data-name="Group 11560" xmlns="http://www.w3.org/2000/svg" width="70.15" height="65.654" viewBox="0 0 70.15 65.654">
  <g id="Group_11558" data-name="Group 11558">
    <path id="Path_10680" data-name="Path 10680" d="M53.759,38.464a29.589,29.589,0,0,0,3.452-13.379,18.136,18.136,0,0,0-36.272,0,29.589,29.589,0,0,0,3.452,13.379C11.968,41.364,4,47.684,4,54.721,4,64.581,19.735,72.6,39.075,72.6S74.15,64.581,74.15,54.721C74.15,47.684,66.181,41.364,53.759,38.464Zm-31.3-13.379a16.611,16.611,0,0,1,33.222,0c0,14.527-13.891,26.468-16.611,28.666C36.355,51.552,22.464,39.611,22.464,25.084Zm25.9,21.559c6.106,1.633,10.027,4.772,10.027,8.078,0,5.018-8.845,9.257-19.314,9.257s-19.314-4.239-19.314-9.257c0-3.307,3.922-6.445,10.027-8.078a55.917,55.917,0,0,0,8.829,8.688.762.762,0,0,0,.915,0A55.922,55.922,0,0,0,48.362,46.643ZM39.075,71.077c-18.5,0-33.55-7.337-33.55-16.356,0-6.374,7.678-12.173,19.61-14.863a46.114,46.114,0,0,0,3.622,5.485c-6.521,1.891-10.522,5.424-10.522,9.378,0,6.046,9.154,10.782,20.839,10.782s20.839-4.736,20.839-10.782c0-3.954-4-7.487-10.522-9.378a46.114,46.114,0,0,0,3.622-5.485c11.932,2.69,19.61,8.489,19.61,14.863C72.625,63.74,57.574,71.077,39.075,71.077Z" transform="translate(-4 -6.948)" fill="#57b22c"/>
    <path id="Path_10681" data-name="Path 10681" d="M54.848,28.54a7.04,7.04,0,1,0-7.04,7.04A7.048,7.048,0,0,0,54.848,28.54Zm-12.556,0a5.515,5.515,0,1,1,5.515,5.515A5.522,5.522,0,0,1,42.292,28.54Z" transform="translate(-12.732 -10.404)" fill="#57b22c"/>
  </g>
</svg>
