<svg id="Group_11559" data-name="Group 11559" xmlns="http://www.w3.org/2000/svg" width="70" height="68.604" viewBox="0 0 70 68.604">
  <g id="Group_11557" data-name="Group 11557">
    <path id="Path_10676" data-name="Path 10676" d="M75.813,6.891a6.654,6.654,0,0,0-6.492-1.739L24.827,17.074a6.72,6.72,0,0,0-3.013,11.244L54.387,60.89a6.645,6.645,0,0,0,4.722,1.974,6.848,6.848,0,0,0,1.77-.235,6.651,6.651,0,0,0,4.752-4.752L77.552,13.383A6.652,6.652,0,0,0,75.813,6.891Zm.269,6.1L64.161,57.484a5.2,5.2,0,0,1-8.7,2.33L39.715,44.066,58.282,25.5a.761.761,0,0,0-1.076-1.076L38.639,42.99,22.891,27.242a5.2,5.2,0,0,1,2.331-8.7L69.716,6.622a5.3,5.3,0,0,1,1.369-.182,5.206,5.206,0,0,1,5,6.549Z" transform="translate(-7.788 -4.917)" fill="#09479c"/>
    <path id="Path_10677" data-name="Path 10677" d="M14.477,48.546a.761.761,0,0,0-1.076,0L4.223,57.724A.761.761,0,1,0,5.3,58.8l9.178-9.178A.761.761,0,0,0,14.477,48.546Z" transform="translate(-4 -15.297)" fill="#09479c"/>
    <path id="Path_10678" data-name="Path 10678" d="M45.086,87.394l-4.5,4.5a.761.761,0,1,0,1.076,1.076l4.5-4.5a.761.761,0,0,0-1.076-1.076Z" transform="translate(-12.696 -24.586)" fill="#09479c"/>
    <path id="Path_10679" data-name="Path 10679" d="M23.988,73.084,16.7,80.373a.761.761,0,1,0,1.076,1.076l7.288-7.288a.761.761,0,0,0-1.076-1.076Z" transform="translate(-6.984 -21.165)" fill="#09479c"/>
  </g>
</svg>
