<svg xmlns="http://www.w3.org/2000/svg" width="681.047" height="531.921" viewBox="0 0 681.047 531.921">
  <g id="Subtract" fill="rgba(255,255,255,0.69)" style="isolation: isolate">
    <path d="M48.143,0A48.143,48.143,0,0,0,0,48.143V455.6A48.143,48.143,0,0,0,48.143,503.74H291.206c25.1,0,49.172,28.181,74.272,28.181H632.9a48.142,48.142,0,0,0,48.143-48.143V159.694A48.142,48.142,0,0,0,632.9,111.551H615.291a46.969,46.969,0,0,1-46.969-46.969V48.143A48.143,48.143,0,0,0,520.179,0Z" stroke="none"/>
    <path d="M 48.1429443359375 0.99993896484375 C 41.7781982421875 0.99993896484375 35.60443115234375 2.24627685546875 29.7930908203125 4.70428466796875 C 24.179443359375 7.07861328125 19.1376953125 10.47796630859375 14.807861328125 14.80780029296875 C 10.47802734375 19.13763427734375 7.07867431640625 24.179443359375 4.704345703125 29.79302978515625 C 2.246337890625 35.60446166992188 1 41.7781982421875 1 48.1429443359375 L 1 455.5968627929688 C 1 461.9616088867188 2.246337890625 468.1355285644531 4.704345703125 473.9468688964844 C 7.07867431640625 479.560546875 10.47802734375 484.602294921875 14.807861328125 488.93212890625 C 19.1376953125 493.261962890625 24.179443359375 496.6612854003906 29.79302978515625 499.0356140136719 C 35.60443115234375 501.4935302734375 41.7781982421875 502.7398681640625 48.1429443359375 502.7398681640625 L 291.2062683105469 502.7398681640625 C 304.0225219726562 502.7398681640625 316.6386108398438 509.9703674316406 328.83935546875 516.962890625 C 334.8580932617188 520.4122924804688 341.0816955566406 523.9791870117188 347.2067565917969 526.5982666015625 C 350.4828491210938 527.9991455078125 353.4736938476562 529.026611328125 356.3501892089844 529.7394409179688 C 359.558349609375 530.5345458984375 362.5440063476562 530.9210205078125 365.4779357910156 530.9210205078125 L 632.9039306640625 530.9210205078125 C 639.268798828125 530.9210205078125 645.442626953125 529.6746826171875 651.25390625 527.216796875 C 656.8676147460938 524.8424682617188 661.9093627929688 521.443115234375 666.2391967773438 517.1134033203125 C 670.5689086914062 512.7835693359375 673.96826171875 507.7417907714844 676.3425903320312 502.1281127929688 C 678.800537109375 496.3168029785156 680.046875 490.1429443359375 680.046875 483.7781372070312 L 680.046875 159.6937866210938 C 680.046875 153.3289489746094 678.800537109375 147.1551208496094 676.3425903320312 141.3437194824219 C 673.96826171875 135.7300415039062 670.5689086914062 130.6882934570312 666.2391967773438 126.3584594726562 C 661.9093627929688 122.0287170410156 656.8676147460938 118.6293640136719 651.25390625 116.2550354003906 C 645.442626953125 113.797119140625 639.268798828125 112.55078125 632.9039306640625 112.55078125 L 615.2905883789062 112.55078125 C 588.8405151367188 112.55078125 567.3218383789062 91.03213500976562 567.3218383789062 64.58203125 L 567.3218383789062 48.1429443359375 C 567.3218383789062 41.7781982421875 566.0755004882812 35.60446166992188 563.6176147460938 29.79302978515625 C 561.2432861328125 24.179443359375 557.8439331054688 19.13763427734375 553.51416015625 14.80780029296875 C 549.184326171875 10.47796630859375 544.1425170898438 7.07861328125 538.5289306640625 4.70428466796875 C 532.717529296875 2.24627685546875 526.543701171875 0.99993896484375 520.1788330078125 0.99993896484375 L 48.1429443359375 0.99993896484375 M 48.1429443359375 -6.103515625e-05 L 520.1788330078125 -6.103515625e-05 C 546.7679443359375 -6.103515625e-05 568.3218383789062 21.55429077148438 568.3218383789062 48.1429443359375 L 568.3218383789062 64.58203125 C 568.3218383789062 90.52212524414062 589.3509521484375 111.55078125 615.2905883789062 111.55078125 L 632.9039306640625 111.55078125 C 659.492919921875 111.55078125 681.046875 133.1047058105469 681.046875 159.6937866210938 L 681.046875 483.7781372070312 C 681.046875 510.3671264648438 659.492919921875 531.9210205078125 632.9039306640625 531.9210205078125 L 365.4779357910156 531.9210205078125 C 340.3778686523438 531.9210205078125 316.3063659667969 503.7398681640625 291.2062683105469 503.7398681640625 L 48.1429443359375 503.7398681640625 C 21.55426025390625 503.7398681640625 0 482.1858825683594 0 455.5968627929688 L 0 48.1429443359375 C 0 21.55429077148438 21.55426025390625 -6.103515625e-05 48.1429443359375 -6.103515625e-05 Z" stroke="none" fill="rgba(255,255,255,0.29)"/>
  </g>
</svg>
