<svg xmlns="http://www.w3.org/2000/svg" width="55.522" height="69.385" viewBox="0 0 55.522 69.385">
  <path id="Path_10683" data-name="Path 10683" d="M51.961,35.64a22.626,22.626,0,0,0,5.928-14.7,16.937,16.937,0,1,0-33.875,0,22.626,22.626,0,0,0,5.928,14.7A27.928,27.928,0,0,0,13.19,61.106v2.232A10.057,10.057,0,0,0,23.236,73.385H58.668A10.057,10.057,0,0,0,68.713,63.339V61.106A27.928,27.928,0,0,0,51.961,35.64Zm-26.439-14.7a15.429,15.429,0,0,1,30.858,0c0,8.392-6.883,18.528-15.429,18.528S25.523,29.329,25.523,20.937ZM67.2,63.339a8.547,8.547,0,0,1-8.537,8.538H23.236A8.547,8.547,0,0,1,14.7,63.339V61.106A26.409,26.409,0,0,1,31.088,36.788a14.585,14.585,0,0,0,9.863,4.186,14.585,14.585,0,0,0,9.863-4.186A26.409,26.409,0,0,1,67.2,61.106v2.232Z" transform="translate(-13.19 -4)" fill="#57b22c"/>
</svg>
